<svg width="866" height="1614" viewBox="0 0 866 1614" preserveAspectRatio="none" xmlns="http://www.w3.org/2000/svg" xmlns:xlink="http://www.w3.org/1999/xlink" overflow="hidden"><defs></defs><g><rect x="20" y="17.7451" width="819.519" height="20.9531" fill="none"/><ellipse cx="150.36" cy="53.6982" rx="10" ry="10" stroke="#222222" fill="#222222"/><rect x="50.8262" y="83.6982" rx="12.5" ry="12.5" width="199.068" height="33.9688" stroke="#181818" stroke-width="0.5" fill="#F1F1F1"/><text font-family="Arial" font-size="12" x="60.8262" y="104.837">Открывает веб-приложение</text><rect x="68.6621" y="435.448" rx="12.5" ry="12.5" width="163.397" height="47.9375" stroke="#181818" stroke-width="0.5" fill="#F1F1F1"/><text font-family="Arial" font-size="12" x="78.6621" y="456.587">Ввод тикера в поиск</text><text font-family="Arial" font-size="12" x="78.6621" y="470.556">и настройка фильтров</text><rect x="42.7344" y="503.386" rx="12.5" ry="12.5" width="215.252" height="33.9688" stroke="#181818" stroke-width="0.5" fill="#F1F1F1"/><text font-family="Arial" font-size="12" x="52.7344" y="524.524">Клик по выбранной облигации</text><rect x="51.2275" y="747.198" rx="12.5" ry="12.5" width="198.266" height="47.9375" stroke="#181818" stroke-width="0.5" fill="#F1F1F1"/><text font-family="Arial" font-size="12" x="61.2275" y="768.337">Ввод количества и нажатие</text><text font-family="Arial" font-size="12" x="61.2275" y="782.306">"Добавить в портфель"</text><rect x="76.2705" y="1029.44" rx="12.5" ry="12.5" width="148.18" height="47.9375" stroke="#181818" stroke-width="0.5" fill="#F1F1F1"/><text font-family="Arial" font-size="12" x="86.2705" y="1050.58">Переход во вкладку</text><text font-family="Arial" font-size="12" x="86.2705" y="1064.55">"Мой портфель"</text><rect x="26" y="1273.26" rx="12.5" ry="12.5" width="248.721" height="47.9375" stroke="#181818" stroke-width="0.5" fill="#F1F1F1"/><text font-family="Arial" font-size="12" x="36" y="1294.4">Установка шока процентной ставки</text><text font-family="Arial" font-size="12" x="36" y="1308.36">(настройка ползунка)</text><rect x="54.5938" y="1341.19" rx="12.5" ry="12.5" width="191.533" height="33.9688" stroke="#181818" stroke-width="0.5" fill="#F1F1F1"/><text font-family="Arial" font-size="12" x="64.5938" y="1362.33">Нажатие "Применить шок"</text><ellipse cx="150.36" cy="1582.04" rx="11" ry="11" stroke="#222222" fill="none"/><ellipse cx="150.36" cy="1582.04" rx="6" ry="6" stroke="#222222" fill="#222222"/><line x1="20" y1="17.7451" x2="20" y2="1593.04" stroke="#000000" stroke-width="1.5"/><rect x="288.995" y="137.667" rx="12.5" ry="12.5" width="268.713" height="47.9375" stroke="#181818" stroke-width="0.5" fill="#F1F1F1"/><text font-family="Arial" font-size="12" x="298.995" y="158.806">Авторизация пользователя</text><text font-family="Arial" font-size="12" x="298.995" y="172.774">(генерация/валидация уникального id)</text><rect x="300.394" y="205.605" rx="12.5" ry="12.5" width="245.914" height="33.9688" stroke="#181818" stroke-width="0.5" fill="#F1F1F1"/><text font-family="Arial" font-size="12" x="310.394" y="226.743">HTTP GET Запрос списка облигаций</text><rect x="337.139" y="381.479" rx="12.5" ry="12.5" width="172.426" height="33.9688" stroke="#181818" stroke-width="0.5" fill="#F1F1F1"/><text font-family="Arial" font-size="12" x="347.139" y="402.618">Отображение Скринера</text><rect x="323.955" y="679.261" rx="12.5" ry="12.5" width="198.793" height="47.9375" stroke="#181818" stroke-width="0.5" fill="#F1F1F1"/><text font-family="Arial" font-size="12" x="333.955" y="700.399">Отрисовка карточки бумаги</text><text font-family="Arial" font-size="12" x="333.955" y="714.368">и графика выплат</text><rect x="298.971" y="1097.38" rx="12.5" ry="12.5" width="248.762" height="33.9688" stroke="#181818" stroke-width="0.5" fill="#F1F1F1"/><text font-family="Arial" font-size="12" x="308.971" y="1118.52">Запрос аналитики и сырых позиций</text><rect x="316.303" y="1151.35" rx="12.5" ry="12.5" width="214.098" height="47.9375" stroke="#181818" stroke-width="0.5" fill="#F1F1F1"/><text font-family="Arial" font-size="12" x="326.303" y="1172.49">Агрегация лотов (ISIN), расчет</text><text font-family="Arial" font-size="12" x="326.303" y="1186.46">средней цены (WAP) и PnL</text><rect x="284.721" y="1219.29" rx="12.5" ry="12.5" width="277.262" height="33.9688" stroke="#181818" stroke-width="0.5" fill="#F1F1F1"/><text font-family="Arial" font-size="12" x="294.721" y="1240.43">Построение календаря будущих выплат</text><rect x="295.739" y="1463.1" rx="12.5" ry="12.5" width="255.225" height="33.9688" stroke="#181818" stroke-width="0.5" fill="#F1F1F1"/><text font-family="Arial" font-size="12" x="305.739" y="1484.24">Визуализация переоценки портфеля</text><rect x="289.815" y="1517.07" rx="12.5" ry="12.5" width="267.072" height="33.9688" stroke="#181818" stroke-width="0.5" fill="#F1F1F1"/><text font-family="Arial" font-size="12" x="299.815" y="1538.21">Выдача текстовой риск-рекомендации</text><line x1="278.721" y1="17.7451" x2="278.721" y2="1593.04" stroke="#000000" stroke-width="1.5"/><rect x="600.421" y="259.573" rx="12.5" ry="12.5" width="204.799" height="47.9375" stroke="#181818" stroke-width="0.5" fill="#F1F1F1"/><text font-family="Arial" font-size="12" x="610.421" y="280.712">SELECT из таблицы Securities</text><text font-family="Arial" font-size="12" x="610.421" y="294.681">(LEFT JOIN MarketData)</text><rect x="622.552" y="327.511" rx="12.5" ry="12.5" width="160.537" height="33.9688" stroke="#181818" stroke-width="0.5" fill="#F1F1F1"/><text font-family="Arial" font-size="12" x="632.552" y="348.649">Возврат JSON-массива</text><rect x="594.192" y="557.355" rx="12.5" ry="12.5" width="217.256" height="33.9688" stroke="#181818" stroke-width="0.5" fill="#F1F1F1"/><text font-family="Arial" font-size="12" x="604.192" y="578.493">Запрос CashFlows и MarketData</text><rect x="605.428" y="611.323" rx="12.5" ry="12.5" width="194.785" height="47.9375" stroke="#181818" stroke-width="0.5" fill="#F1F1F1"/><text font-family="Arial" font-size="12" x="615.428" y="632.462">Квант-движок: расчет</text><text font-family="Arial" font-size="12" x="615.428" y="646.431">YTM, Дюрации, Выпуклости</text><rect x="605.829" y="863.538" rx="12.5" ry="12.5" width="193.982" height="33.9688" stroke="#181818" stroke-width="0.5" fill="#F1F1F1"/><text font-family="Arial" font-size="12" x="615.829" y="884.677">Создание нового портфеля</text><path d="M634.959 815.136 770.681 815.136 782.681 827.136 770.681 839.136 634.959 839.136 622.959 827.136 634.959 815.136Z" stroke="#181818" stroke-width="0.5" stroke-miterlimit="10" fill="#F1F1F1"/><text font-family="Arial" font-size="11" x="706.82" y="849.346">Нет</text><text font-family="Arial" font-size="11" x="634.959" y="830.944">Портфель существует?</text><text font-family="Arial" font-size="11" x="782.681" y="824.542">Да</text><path d="M702.82 917.507 714.82 929.507 702.82 941.507 690.82 929.507 702.82 917.507Z" stroke="#181818" stroke-width="0.5" stroke-miterlimit="10" fill="#F1F1F1"/><rect x="586.312" y="961.507" rx="12.5" ry="12.5" width="233.018" height="47.9375" stroke="#181818" stroke-width="0.5" fill="#F1F1F1"/><text font-family="Arial" font-size="12" x="596.312" y="982.645">Запись транзакции (PortfolioItem)</text><text font-family="Arial" font-size="12" x="596.312" y="996.614">в базу данных</text><rect x="571.982" y="1395.16" rx="12.5" ry="12.5" width="261.676" height="47.9375" stroke="#181818" stroke-width="0.5" fill="#F1F1F1"/><text font-family="Arial" font-size="12" x="581.982" y="1416.3">Выполнение сценарного стресс-теста</text><text font-family="Arial" font-size="12" x="581.982" y="1430.27">(Формула Тейлора)</text><line x1="565.982" y1="17.7451" x2="565.982" y2="1593.04" stroke="#000000" stroke-width="1.5"/><line x1="837.658" y1="17.7451" x2="837.658" y2="1593.04" stroke="#000000" stroke-width="1.5"/><line x1="150.36" y1="63.6982" x2="150.36" y2="83.6982" stroke="#181818"/><path d="M146.36 73.6982 150.36 83.6982 154.36 73.6982 150.36 77.6982Z" stroke="#181818" stroke-miterlimit="10" fill="#181818"/><line x1="150.36" y1="483.386" x2="150.36" y2="503.386" stroke="#181818"/><path d="M146.36 493.386 150.36 503.386 154.36 493.386 150.36 497.386Z" stroke="#181818" stroke-miterlimit="10" fill="#181818"/><line x1="150.36" y1="1321.19" x2="150.36" y2="1341.19" stroke="#181818"/><path d="M146.36 1331.19 150.36 1341.19 154.36 1331.19 150.36 1335.19Z" stroke="#181818" stroke-miterlimit="10" fill="#181818"/><line x1="423.352" y1="185.605" x2="423.352" y2="205.605" stroke="#181818"/><path d="M419.352 195.605 423.352 205.605 427.352 195.605 423.352 199.605Z" stroke="#181818" stroke-miterlimit="10" fill="#181818"/><line x1="423.352" y1="1131.35" x2="423.352" y2="1151.35" stroke="#181818"/><path d="M419.352 1141.35 423.352 1151.35 427.352 1141.35 423.352 1145.35Z" stroke="#181818" stroke-miterlimit="10" fill="#181818"/><line x1="423.352" y1="1199.29" x2="423.352" y2="1219.29" stroke="#181818"/><path d="M419.352 1209.29 423.352 1219.29 427.352 1209.29 423.352 1213.29Z" stroke="#181818" stroke-miterlimit="10" fill="#181818"/><line x1="423.352" y1="1497.07" x2="423.352" y2="1517.07" stroke="#181818"/><path d="M419.352 1507.07 423.352 1517.07 427.352 1507.07 423.352 1511.07Z" stroke="#181818" stroke-miterlimit="10" fill="#181818"/><line x1="702.82" y1="307.511" x2="702.82" y2="327.511" stroke="#181818"/><path d="M698.82 317.511 702.82 327.511 706.82 317.511 702.82 321.511Z" stroke="#181818" stroke-miterlimit="10" fill="#181818"/><line x1="702.82" y1="591.323" x2="702.82" y2="611.323" stroke="#181818"/><path d="M698.82 601.323 702.82 611.323 706.82 601.323 702.82 605.323Z" stroke="#181818" stroke-miterlimit="10" fill="#181818"/><line x1="702.82" y1="839.136" x2="702.82" y2="863.538" stroke="#181818"/><path d="M698.82 853.538 702.82 863.538 706.82 853.538 702.82 857.538Z" stroke="#181818" stroke-miterlimit="10" fill="#181818"/><line x1="782.681" y1="827.136" x2="809.812" y2="827.136" stroke="#181818"/><path d="M805.812 870.523 809.812 880.523 813.812 870.523 809.812 874.523Z" stroke="#181818" stroke-miterlimit="10" fill="#181818"/><line x1="809.812" y1="827.136" x2="809.812" y2="929.507" stroke="#181818"/><line x1="809.812" y1="929.507" x2="714.82" y2="929.507" stroke="#181818"/><path d="M724.82 925.507 714.82 929.507 724.82 933.507 720.82 929.507Z" stroke="#181818" stroke-miterlimit="10" fill="#181818"/><line x1="702.82" y1="897.507" x2="702.82" y2="917.507" stroke="#181818"/><path d="M698.82 907.507 702.82 917.507 706.82 907.507 702.82 911.507Z" stroke="#181818" stroke-miterlimit="10" fill="#181818"/><line x1="702.82" y1="941.507" x2="702.82" y2="961.507" stroke="#181818"/><path d="M698.82 951.507 702.82 961.507 706.82 951.507 702.82 955.507Z" stroke="#181818" stroke-miterlimit="10" fill="#181818"/><line x1="150.36" y1="117.667" x2="150.36" y2="122.667" stroke="#181818"/><line x1="150.36" y1="122.667" x2="423.352" y2="122.667" stroke="#181818"/><line x1="423.352" y1="122.667" x2="423.352" y2="137.667" stroke="#181818"/><path d="M419.352 127.667 423.352 137.667 427.352 127.667 423.352 131.667Z" stroke="#181818" stroke-miterlimit="10" fill="#181818"/><line x1="423.352" y1="239.573" x2="423.352" y2="244.573" stroke="#181818"/><line x1="423.352" y1="244.573" x2="702.82" y2="244.573" stroke="#181818"/><line x1="702.82" y1="244.573" x2="702.82" y2="259.573" stroke="#181818"/><path d="M698.82 249.573 702.82 259.573 706.82 249.573 702.82 253.573Z" stroke="#181818" stroke-miterlimit="10" fill="#181818"/><line x1="702.82" y1="361.479" x2="702.82" y2="366.479" stroke="#181818"/><line x1="702.82" y1="366.479" x2="423.352" y2="366.479" stroke="#181818"/><line x1="423.352" y1="366.479" x2="423.352" y2="381.479" stroke="#181818"/><path d="M419.352 371.479 423.352 381.479 427.352 371.479 423.352 375.479Z" stroke="#181818" stroke-miterlimit="10" fill="#181818"/><line x1="423.352" y1="415.448" x2="423.352" y2="420.448" stroke="#181818"/><line x1="423.352" y1="420.448" x2="150.36" y2="420.448" stroke="#181818"/><line x1="150.36" y1="420.448" x2="150.36" y2="435.448" stroke="#181818"/><path d="M146.36 425.448 150.36 435.448 154.36 425.448 150.36 429.448Z" stroke="#181818" stroke-miterlimit="10" fill="#181818"/><line x1="150.36" y1="537.355" x2="150.36" y2="542.355" stroke="#181818"/><line x1="150.36" y1="542.355" x2="702.82" y2="542.355" stroke="#181818"/><line x1="702.82" y1="542.355" x2="702.82" y2="557.355" stroke="#181818"/><path d="M698.82 547.354 702.82 557.354 706.82 547.354 702.82 551.354Z" stroke="#181818" stroke-miterlimit="10" fill="#181818"/><line x1="702.82" y1="659.261" x2="702.82" y2="664.261" stroke="#181818"/><line x1="702.82" y1="664.261" x2="423.352" y2="664.261" stroke="#181818"/><line x1="423.352" y1="664.261" x2="423.352" y2="679.261" stroke="#181818"/><path d="M419.352 669.261 423.352 679.261 427.352 669.261 423.352 673.261Z" stroke="#181818" stroke-miterlimit="10" fill="#181818"/><line x1="423.352" y1="727.198" x2="423.352" y2="732.198" stroke="#181818"/><line x1="423.352" y1="732.198" x2="150.36" y2="732.198" stroke="#181818"/><line x1="150.36" y1="732.198" x2="150.36" y2="747.198" stroke="#181818"/><path d="M146.36 737.198 150.36 747.198 154.36 737.198 150.36 741.198Z" stroke="#181818" stroke-miterlimit="10" fill="#181818"/><line x1="150.36" y1="795.136" x2="150.36" y2="800.136" stroke="#181818"/><line x1="150.36" y1="800.136" x2="702.82" y2="800.136" stroke="#181818"/><line x1="702.82" y1="800.136" x2="702.82" y2="815.136" stroke="#181818"/><path d="M698.82 805.136 702.82 815.136 706.82 805.136 702.82 809.136Z" stroke="#181818" stroke-miterlimit="10" fill="#181818"/><line x1="702.82" y1="1009.44" x2="702.82" y2="1014.44" stroke="#181818"/><line x1="702.82" y1="1014.44" x2="150.36" y2="1014.44" stroke="#181818"/><line x1="150.36" y1="1014.44" x2="150.36" y2="1029.44" stroke="#181818"/><path d="M146.36 1019.44 150.36 1029.44 154.36 1019.44 150.36 1023.44Z" stroke="#181818" stroke-miterlimit="10" fill="#181818"/><line x1="150.36" y1="1077.38" x2="150.36" y2="1082.38" stroke="#181818"/><line x1="150.36" y1="1082.38" x2="423.352" y2="1082.38" stroke="#181818"/><line x1="423.352" y1="1082.38" x2="423.352" y2="1097.38" stroke="#181818"/><path d="M419.352 1087.38 423.352 1097.38 427.352 1087.38 423.352 1091.38Z" stroke="#181818" stroke-miterlimit="10" fill="#181818"/><line x1="423.352" y1="1253.26" x2="423.352" y2="1258.26" stroke="#181818"/><line x1="423.352" y1="1258.26" x2="150.36" y2="1258.26" stroke="#181818"/><line x1="150.36" y1="1258.26" x2="150.36" y2="1273.26" stroke="#181818"/><path d="M146.36 1263.26 150.36 1273.26 154.36 1263.26 150.36 1267.26Z" stroke="#181818" stroke-miterlimit="10" fill="#181818"/><line x1="150.36" y1="1375.16" x2="150.36" y2="1380.16" stroke="#181818"/><line x1="150.36" y1="1380.16" x2="702.82" y2="1380.16" stroke="#181818"/><line x1="702.82" y1="1380.16" x2="702.82" y2="1395.16" stroke="#181818"/><path d="M698.82 1385.16 702.82 1395.16 706.82 1385.16 702.82 1389.16Z" stroke="#181818" stroke-miterlimit="10" fill="#181818"/><line x1="702.82" y1="1443.1" x2="702.82" y2="1448.1" stroke="#181818"/><line x1="702.82" y1="1448.1" x2="423.352" y2="1448.1" stroke="#181818"/><line x1="423.352" y1="1448.1" x2="423.352" y2="1463.1" stroke="#181818"/><path d="M419.352 1453.1 423.352 1463.1 427.352 1453.1 423.352 1457.1Z" stroke="#181818" stroke-miterlimit="10" fill="#181818"/><line x1="423.352" y1="1551.04" x2="423.352" y2="1556.04" stroke="#181818"/><line x1="423.352" y1="1556.04" x2="150.36" y2="1556.04" stroke="#181818"/><line x1="150.36" y1="1556.04" x2="150.36" y2="1571.04" stroke="#181818"/><path d="M146.36 1561.04 150.36 1571.04 154.36 1561.04 150.36 1565.04Z" stroke="#181818" stroke-miterlimit="10" fill="#181818"/><text font-family="Arial" font-size="18" x="104.492" y="34.4531">Инвестор</text><text font-family="Arial" font-size="18" x="381.781" y="34.4531">Frontend</text><text font-family="Arial" font-size="18" x="663.017" y="34.4531">Backend</text></g></svg>