<svg width="1135" height="965" viewBox="0 0 1135 965" preserveAspectRatio="none" xmlns="http://www.w3.org/2000/svg" xmlns:xlink="http://www.w3.org/1999/xlink" overflow="hidden"><defs></defs><g><g><rect x="226.019" y="157.828" width="10" height="707.25" stroke="#181818" fill="#FFFFFF"/></g><g><rect x="443.544" y="247.492" width="10" height="543.055" stroke="#181818" fill="#FFFFFF"/></g><g><rect x="624.691" y="291.758" width="10" height="469.656" stroke="#181818" fill="#FFFFFF"/></g><g><rect x="794.774" y="351.156" width="10" height="44.2656" stroke="#181818" fill="#FFFFFF"/></g><g><rect x="930.883" y="463.82" width="10" height="101.531" stroke="#181818" fill="#FFFFFF"/></g><rect x="555.549" y="410.422" width="563.942" height="220.195" stroke="#000000" stroke-width="1.5" fill="none"/><g id="part1-lifeline"><g><rect x="53.7725" y="81.2969" width="8" height="801.781" fill-opacity="0"/><line x1="57" y1="81.2969" x2="57" y2="883.078" stroke="#181818" stroke-width="0.5" stroke-dasharray="5 5"/></g></g><g id="part2-lifeline"><g><rect x="227.019" y="81.2969" width="8" height="801.781" fill-opacity="0"/><line x1="230.185" y1="81.2969" x2="230.185" y2="883.078" stroke="#181818" stroke-width="0.5" stroke-dasharray="5 5"/></g></g><g id="part3-lifeline"><g><rect x="444.544" y="81.2969" width="8" height="801.781" fill-opacity="0"/><line x1="447.563" y1="81.2969" x2="447.563" y2="883.078" stroke="#181818" stroke-width="0.5" stroke-dasharray="5 5"/></g></g><g id="part4-lifeline"><g><rect x="625.691" y="81.2969" width="8" height="801.781" fill-opacity="0"/><line x1="629.549" y1="81.2969" x2="629.549" y2="883.078" stroke="#181818" stroke-width="0.5" stroke-dasharray="5 5"/></g></g><g id="part5-lifeline"><g><rect x="795.774" y="81.2969" width="8" height="801.781" fill-opacity="0"/><line x1="799.297" y1="81.2969" x2="799.297" y2="883.078" stroke="#181818" stroke-width="0.5" stroke-dasharray="5 5"/></g></g><g id="part6-lifeline"><g><rect x="931.883" y="81.2969" width="8" height="801.781" fill-opacity="0"/><line x1="935.25" y1="81.2969" x2="935.25" y2="883.078" stroke="#181818" stroke-width="0.5" stroke-dasharray="5 5"/></g></g><g id="part1-head"><text font-family="Arial" font-size="14" x="5" y="77.9951">Инвестор (UI)</text><ellipse cx="57.7725" cy="13.5" rx="8" ry="8" stroke="#181818" stroke-width="0.5" fill="#E2E2F0"/><path d="M57.7725 21.5 57.7725 48.5M44.7725 29.5 70.7725 29.5M57.7725 48.5 44.7725 63.5M57.7725 48.5 70.7725 63.5" stroke="#181818" stroke-width="0.5" fill="none"/></g><g id="part1-tail"><text font-family="Arial" font-size="14" x="5" y="895.073">Инвестор (UI)</text><ellipse cx="57.7725" cy="906.875" rx="8" ry="8" stroke="#181818" stroke-width="0.5" fill="#E2E2F0"/><path d="M57.7725 914.875 57.7725 941.875M44.7725 922.875 70.7725 922.875M57.7725 941.875 44.7725 956.875M57.7725 941.875 70.7725 956.875" stroke="#181818" stroke-width="0.5" fill="none"/></g><g id="part2-head"><rect x="170.185" y="50" rx="2.5" ry="2.5" width="121.666" height="30.2969" stroke="#181818" stroke-width="0.5" fill="#E2E2F0"/><text font-family="Arial" font-size="14" x="177.185" y="69.9951">React Frontend</text></g><g id="part2-tail"><rect x="170.185" y="882.078" rx="2.5" ry="2.5" width="121.666" height="30.2969" stroke="#181818" stroke-width="0.5" fill="#E2E2F0"/><text font-family="Arial" font-size="14" x="177.185" y="902.073">React Frontend</text></g><g id="part3-head"><rect x="384.563" y="50" rx="2.5" ry="2.5" width="127.962" height="30.2969" stroke="#181818" stroke-width="0.5" fill="#E2E2F0"/><text font-family="Arial" font-size="14" x="391.563" y="69.9951">FastAPI (Router)</text></g><g id="part3-tail"><rect x="384.563" y="882.078" rx="2.5" ry="2.5" width="127.962" height="30.2969" stroke="#181818" stroke-width="0.5" fill="#E2E2F0"/><text font-family="Arial" font-size="14" x="391.563" y="902.073">FastAPI (Router)</text></g><g id="part4-head"><rect x="565.549" y="50" rx="2.5" ry="2.5" width="128.283" height="30.2969" stroke="#181818" stroke-width="0.5" fill="#E2E2F0"/><text font-family="Arial" font-size="14" x="572.549" y="69.9951">Portfolio Service</text></g><g id="part4-tail"><rect x="565.549" y="882.078" rx="2.5" ry="2.5" width="128.283" height="30.2969" stroke="#181818" stroke-width="0.5" fill="#E2E2F0"/><text font-family="Arial" font-size="14" x="572.549" y="902.073">Portfolio Service</text></g><g id="part5-head"><rect x="728.297" y="50" rx="2.5" ry="2.5" width="142.953" height="30.2969" stroke="#181818" stroke-width="0.5" fill="#E2E2F0"/><text font-family="Arial" font-size="14" x="735.297" y="69.9951">PostgreSQL (ORM)</text></g><g id="part5-tail"><rect x="728.297" y="882.078" rx="2.5" ry="2.5" width="142.953" height="30.2969" stroke="#181818" stroke-width="0.5" fill="#E2E2F0"/><text font-family="Arial" font-size="14" x="735.297" y="902.073">PostgreSQL (ORM)</text></g><g id="part6-head"><rect x="881.25" y="50" rx="2.5" ry="2.5" width="109.266" height="30.2969" stroke="#181818" stroke-width="0.5" fill="#E2E2F0"/><text font-family="Arial" font-size="14" x="888.25" y="69.9951">Quant Engine</text></g><g id="part6-tail"><rect x="881.25" y="882.078" rx="2.5" ry="2.5" width="109.266" height="30.2969" stroke="#181818" stroke-width="0.5" fill="#E2E2F0"/><text font-family="Arial" font-size="14" x="888.25" y="902.073">Quant Engine</text></g><g><rect x="226.019" y="157.828" width="10" height="707.25" stroke="#181818" fill="#FFFFFF"/></g><g><rect x="443.544" y="247.492" width="10" height="543.055" stroke="#181818" fill="#FFFFFF"/></g><g><rect x="624.691" y="291.758" width="10" height="469.656" stroke="#181818" fill="#FFFFFF"/></g><g><rect x="794.774" y="351.156" width="10" height="44.2656" stroke="#181818" fill="#FFFFFF"/></g><g><rect x="930.883" y="463.82" width="10" height="101.531" stroke="#181818" fill="#FFFFFF"/></g><g id="msg1"><path d="M214.019 153.828 224.019 157.828 214.019 161.828 218.019 157.828Z" stroke="#181818" stroke-miterlimit="10" fill="#181818"/><line x1="57.7725" y1="157.828" x2="220.019" y2="157.828" stroke="#181818"/><text font-family="Arial" font-size="13" x="64.7725" y="107.364">Вводит</text><text font-family="Arial" font-size="13" x="114.316" y="107.364"></text><text font-family="Arial" font-size="13" x="118.448" y="107.364">шок</text><text font-family="Arial" font-size="13" x="146.149" y="107.364"></text><text font-family="Arial" font-size="13" x="150.282" y="107.364">ставки</text><text font-family="Arial" font-size="13" x="64.7725" y="122.497">(например,</text><text font-family="Arial" font-size="13" x="141.7" y="122.497"></text><text font-family="Arial" font-size="13" x="145.832" y="122.497">+200</text><text font-family="Arial" font-size="13" x="181.538" y="122.497"></text><text font-family="Arial" font-size="13" x="185.67" y="122.497">bps)</text><text font-family="Arial" font-size="13" x="64.7725" y="137.629">и</text><text font-family="Arial" font-size="13" x="73.2212" y="137.629"></text><text font-family="Arial" font-size="13" x="77.3535" y="137.629">нажимает</text><text font-family="Arial" font-size="13" x="64.7725" y="152.762">"Рассчитать"</text></g><g id="msg2"><path d="M431.544 243.492 441.544 247.492 431.544 251.492 435.544 247.492Z" stroke="#181818" stroke-miterlimit="10" fill="#181818"/><line x1="236.019" y1="247.492" x2="437.544" y2="247.492" stroke="#181818"/><text font-family="Arial" font-size="13" x="243.019" y="181.895">POST</text><text font-family="Arial" font-size="13" x="243.019" y="197.028">/api/portfolio/{id}/stress-test</text><text font-family="Arial" font-size="13" x="243.019" y="212.161">Body:</text><text font-family="Arial" font-size="13" x="243.019" y="227.293">{rate_shock_bps:</text><text font-family="Arial" font-size="13" x="243.019" y="242.426">200}</text></g><g id="msg3"><path d="M612.691 287.758 622.691 291.758 612.691 295.758 616.691 291.758Z" stroke="#181818" stroke-miterlimit="10" fill="#181818"/><line x1="453.544" y1="291.758" x2="618.691" y2="291.758" stroke="#181818"/><text font-family="Arial" font-size="13" x="460.544" y="271.559">stress_test_portfolio(id,</text><text font-family="Arial" font-size="13" x="460.544" y="286.692">200)</text></g><g id="msg4"><path d="M782.774 347.156 792.774 351.156 782.774 355.156 786.774 351.156Z" stroke="#181818" stroke-miterlimit="10" fill="#181818"/><line x1="634.691" y1="351.156" x2="788.774" y2="351.156" stroke="#181818"/><text font-family="Arial" font-size="13" x="641.691" y="315.825">SELECT</text><text font-family="Arial" font-size="13" x="690.631" y="315.825"></text><text font-family="Arial" font-size="13" x="694.764" y="315.825">items,</text><text font-family="Arial" font-size="13" x="735.04" y="315.825"></text><text font-family="Arial" font-size="13" x="739.172" y="315.825">bonds,</text><text font-family="Arial" font-size="13" x="641.691" y="330.957">cash_flows,</text><text font-family="Arial" font-size="13" x="641.691" y="346.09">latest(market_data)</text></g><g id="msg5"><path d="M645.691 391.422 635.691 395.422 645.691 399.422 641.691 395.422Z" stroke="#181818" stroke-miterlimit="10" fill="#181818"/><line x1="639.691" y1="395.422" x2="798.774" y2="395.422" stroke="#181818" stroke-dasharray="2 2"/><text font-family="Arial" font-size="13" x="651.691" y="375.223">Возврат</text><text font-family="Arial" font-size="13" x="706.928" y="375.223"></text><text font-family="Arial" font-size="13" x="711.061" y="375.223">графа</text><text font-family="Arial" font-size="13" x="651.691" y="390.356">объектов</text></g><path d="M555.549 410.422 632.173 410.422 632.173 417.555 622.173 427.555 555.549 427.555 555.549 410.422" stroke="#000000" stroke-width="1.5" fill="#EEEEEE"/><rect x="555.549" y="410.422" width="563.942" height="220.195" stroke="#000000" stroke-width="1.5" fill="none"/><text font-family="Arial" font-weight="700" font-size="13" x="570.549" y="423.489">loop</text><text font-family="Arial" font-weight="700" font-size="11" x="647.173" y="422.632">[Для каждой позиции в портфеле]</text><g id="msg6"><path d="M918.883 459.82 928.883 463.82 918.883 467.82 922.883 463.82Z" stroke="#181818" stroke-miterlimit="10" fill="#181818"/><line x1="634.691" y1="463.82" x2="924.883" y2="463.82" stroke="#181818"/><text font-family="Arial" font-size="13" x="641.691" y="443.622">calculate(price,</text><text font-family="Arial" font-size="13" x="641.691" y="458.754">face_value,</text><text font-family="Arial" font-size="13" x="715.52" y="458.754"></text><text font-family="Arial" font-size="13" x="719.653" y="458.754">cashflows)</text></g><g id="msg7"><line x1="940.883" y1="523.219" x2="982.883" y2="523.219" stroke="#181818"/><line x1="982.883" y1="523.219" x2="982.883" y2="536.219" stroke="#181818"/><line x1="941.883" y1="536.219" x2="982.883" y2="536.219" stroke="#181818"/><path d="M951.883 532.219 941.883 536.219 951.883 540.219 947.883 536.219Z" stroke="#181818" stroke-miterlimit="10" fill="#181818"/><text font-family="Arial" font-size="13" x="947.883" y="487.887">Метод</text><text font-family="Arial" font-size="13" x="991.612" y="487.887"></text><text font-family="Arial" font-size="13" x="995.745" y="487.887">Ньютона</text><text font-family="Arial" font-size="13" x="1056.12" y="487.887"></text><text font-family="Arial" font-size="13" x="1060.25" y="487.887">(YTM)</text><text font-family="Arial" font-size="13" x="947.883" y="503.02">Расчет</text><text font-family="Arial" font-size="13" x="994.088" y="503.02"></text><text font-family="Arial" font-size="13" x="998.22" y="503.02">Дюрации</text><text font-family="Arial" font-size="13" x="1061.28" y="503.02"></text><text font-family="Arial" font-size="13" x="1065.42" y="503.02">и</text><text font-family="Arial" font-size="13" x="947.883" y="518.153">Выпуклости</text></g><g id="msg8"><path d="M645.691 561.352 635.691 565.352 645.691 569.352 641.691 565.352Z" stroke="#181818" stroke-miterlimit="10" fill="#181818"/><line x1="639.691" y1="565.352" x2="934.883" y2="565.352" stroke="#181818" stroke-dasharray="2 2"/><text font-family="Arial" font-size="13" x="651.691" y="560.286">Объект</text><text font-family="Arial" font-size="13" x="702.548" y="560.286"></text><text font-family="Arial" font-size="13" x="706.681" y="560.286">BondAnalytics</text></g><g id="msg9"><line x1="634.691" y1="609.617" x2="676.691" y2="609.617" stroke="#181818"/><line x1="676.691" y1="609.617" x2="676.691" y2="622.617" stroke="#181818"/><line x1="635.691" y1="622.617" x2="676.691" y2="622.617" stroke="#181818"/><path d="M645.691 618.617 635.691 622.617 645.691 626.617 641.691 622.617Z" stroke="#181818" stroke-miterlimit="10" fill="#181818"/><text font-family="Arial" font-size="13" x="641.691" y="589.418">Применение</text><text font-family="Arial" font-size="13" x="641.691" y="604.551">формулы</text><text font-family="Arial" font-size="13" x="705.085" y="604.551"></text><text font-family="Arial" font-size="13" x="709.217" y="604.551">Тейлора</text></g><g id="msg10"><line x1="634.691" y1="704.148" x2="676.691" y2="704.148" stroke="#181818"/><line x1="676.691" y1="704.148" x2="676.691" y2="717.148" stroke="#181818"/><line x1="635.691" y1="717.148" x2="676.691" y2="717.148" stroke="#181818"/><path d="M645.691 713.148 635.691 717.148 645.691 721.148 641.691 717.148Z" stroke="#181818" stroke-miterlimit="10" fill="#181818"/><text font-family="Arial" font-size="13" x="641.691" y="653.684">Агрегация</text><text font-family="Arial" font-size="13" x="713.578" y="653.684"></text><text font-family="Arial" font-size="13" x="717.71" y="653.684">общей</text><text font-family="Arial" font-size="13" x="641.691" y="668.817">стоимости</text><text font-family="Arial" font-size="13" x="641.691" y="683.95">и</text><text font-family="Arial" font-size="13" x="650.14" y="683.95"></text><text font-family="Arial" font-size="13" x="654.272" y="683.95">убытка/прибыли</text><text font-family="Arial" font-size="13" x="641.691" y="699.082">(PnL)</text></g><g id="msg11"><path d="M464.544 757.414 454.544 761.414 464.544 765.414 460.544 761.414Z" stroke="#181818" stroke-miterlimit="10" fill="#181818"/><line x1="458.544" y1="761.414" x2="628.691" y2="761.414" stroke="#181818" stroke-dasharray="2 2"/><text font-family="Arial" font-size="13" x="470.544" y="741.215">PortfolioStressResult</text><text font-family="Arial" font-size="13" x="470.544" y="756.348">(DTO)</text></g><g id="msg12"><path d="M247.019 786.547 237.019 790.547 247.019 794.547 243.019 790.547Z" stroke="#181818" stroke-miterlimit="10" fill="#181818"/><line x1="241.019" y1="790.547" x2="447.544" y2="790.547" stroke="#181818" stroke-dasharray="2 2"/><text font-family="Arial" font-size="13" x="253.019" y="785.481">HTTP</text><text font-family="Arial" font-size="13" x="286.515" y="785.481"></text><text font-family="Arial" font-size="13" x="290.647" y="785.481">200</text><text font-family="Arial" font-size="13" x="315.46" y="785.481"></text><text font-family="Arial" font-size="13" x="319.593" y="785.481">OK</text><text font-family="Arial" font-size="13" x="338.35" y="785.481"></text><text font-family="Arial" font-size="13" x="342.482" y="785.481">(JSON)</text></g><g id="msg13"><path d="M68.7725 861.078 58.7725 865.078 68.7725 869.078 64.7725 865.078Z" stroke="#181818" stroke-miterlimit="10" fill="#181818"/><line x1="62.7725" y1="865.078" x2="230.019" y2="865.078" stroke="#181818"/><text font-family="Arial" font-size="13" x="74.7725" y="814.614">Отрисовка</text><text font-family="Arial" font-size="13" x="147.859" y="814.614"></text><text font-family="Arial" font-size="13" x="151.992" y="814.614">графика</text><text font-family="Arial" font-size="13" x="74.7725" y="829.747">и</text><text font-family="Arial" font-size="13" x="83.2212" y="829.747"></text><text font-family="Arial" font-size="13" x="87.3535" y="829.747">вывод</text><text font-family="Arial" font-size="13" x="129.883" y="829.747"></text><text font-family="Arial" font-size="13" x="134.015" y="829.747">результата</text><text font-family="Arial" font-size="13" x="74.7725" y="844.879">влияния</text><text font-family="Arial" font-size="13" x="131.781" y="844.879"></text><text font-family="Arial" font-size="13" x="135.913" y="844.879">на</text><text font-family="Arial" font-size="13" x="74.7725" y="860.012">стоимость</text></g></g></svg>