<svg width="756" height="847" viewBox="0 0 756 847" preserveAspectRatio="none" xmlns="http://www.w3.org/2000/svg" xmlns:xlink="http://www.w3.org/1999/xlink" overflow="hidden"><defs></defs><g><ellipse cx="429.865" cy="25" rx="10" ry="10" stroke="#222222" fill="#222222"/><rect x="303.319" y="55" rx="12.5" ry="12.5" width="253.092" height="33.9688" stroke="#181818" stroke-width="0.5" fill="#F1F1F1"/><text font-family="Arial" font-size="12" x="313.319" y="76.1387">Запуск задачи по расписанию (Cron)</text><rect x="318.984" y="108.969" rx="12.5" ry="12.5" width="221.762" height="33.9688" stroke="#181818" stroke-width="0.5" fill="#F1F1F1"/><text font-family="Arial" font-size="12" x="328.984" y="130.107">HTTP GET запрос к MOEX ISS API</text><path d="M387.654 162.938 472.077 162.938 484.077 174.938 472.077 186.938 387.654 186.938 375.654 174.938 387.654 162.938Z" stroke="#181818" stroke-width="0.5" stroke-miterlimit="10" fill="#F1F1F1"/><text font-family="Arial" font-size="11" x="387.654" y="178.746">Ответ 200 OK?</text><text font-family="Arial" font-size="11" x="360.319" y="172.343">Да</text><text font-family="Arial" font-size="11" x="484.077" y="172.343">Нет/Ошибка сети</text><rect x="61.9697" y="196.938" rx="12.5" ry="12.5" width="365.428" height="33.9688" stroke="#181818" stroke-width="0.5" fill="#F1F1F1"/><text font-family="Arial" font-size="12" x="71.9697" y="218.076">Извлечение блока "securities" (Статичные параметры)</text><rect x="67.2988" y="250.906" rx="12.5" ry="12.5" width="354.769" height="33.9688" stroke="#181818" stroke-width="0.5" fill="#F1F1F1"/><text font-family="Arial" font-size="12" x="77.2988" y="272.045">Извлечение блока "marketdata" (Динамичные торги)</text><rect x="64.0381" y="304.875" rx="12.5" ry="12.5" width="361.291" height="33.9688" stroke="#181818" stroke-width="0.5" fill="#F1F1F1"/><text font-family="Arial" font-size="12" x="74.0381" y="326.014">Преобразование матричных JSON в Pandas DataFrame</text><rect x="120.959" y="358.844" rx="12.5" ry="12.5" width="247.449" height="33.9688" stroke="#181818" stroke-width="0.5" fill="#F1F1F1"/><text font-family="Arial" font-size="12" x="130.959" y="379.982">JOIN таблиц по ключу SECID (Тикер)</text><rect x="82.0205" y="461.215" rx="12.5" ry="12.5" width="325.326" height="33.9688" stroke="#181818" stroke-width="0.5" fill="#F1F1F1"/><text font-family="Arial" font-size="12" x="92.0205" y="482.353">Замена на PREVWAPRICE (Цена закрытия вчера)</text><path d="M172.808 412.812 316.56 412.812 328.56 424.812 316.56 436.812 172.808 436.812 160.808 424.812 172.808 412.812Z" stroke="#181818" stroke-width="0.5" stroke-miterlimit="10" fill="#F1F1F1"/><text font-family="Arial" font-size="11" x="248.684" y="447.023">Да</text><text font-family="Arial" font-size="11" x="172.808" y="428.621">Поле LAST (Цена) == null?</text><text font-family="Arial" font-size="11" x="328.56" y="422.218">Нет</text><path d="M244.684 515.184 256.684 527.184 244.684 539.184 232.684 527.184 244.684 515.184Z" stroke="#181818" stroke-width="0.5" stroke-miterlimit="10" fill="#F1F1F1"/><rect x="104.992" y="559.184" rx="12.5" ry="12.5" width="279.383" height="33.9688" stroke="#181818" stroke-width="0.5" fill="#F1F1F1"/><text font-family="Arial" font-size="12" x="114.992" y="580.322">Очистка НКД и объемов от NaN (fillna(0))</text><rect x="63.5781" y="613.152" rx="12.5" ry="12.5" width="362.211" height="33.9688" stroke="#181818" stroke-width="0.5" fill="#F1F1F1"/><text font-family="Arial" font-size="12" x="73.5781" y="634.291">Конвертация DataFrame в список словарей (List[Dict])</text><rect x="16" y="667.121" rx="12.5" ry="12.5" width="457.367" height="33.9688" stroke="#181818" stroke-width="0.5" fill="#F1F1F1"/><text font-family="Arial" font-size="12" x="26" y="688.26">Формирование SQL-запроса INSERT ON CONFLICT DO UPDATE (Upsert)</text><rect x="125.4" y="721.09" rx="12.5" ry="12.5" width="238.566" height="33.9688" stroke="#181818" stroke-width="0.5" fill="#F1F1F1"/><text font-family="Arial" font-size="12" x="135.4" y="742.229">Асинхронный commit в PostgreSQL</text><rect x="493.367" y="196.938" rx="12.5" ry="12.5" width="243.359" height="33.9688" stroke="#181818" stroke-width="0.5" fill="#F1F1F1"/><text font-family="Arial" font-size="12" x="503.367" y="218.076">Логирование ошибки (Logger.error)</text><path d="M429.865 761.059 441.865 773.059 429.865 785.059 417.865 773.059 429.865 761.059Z" stroke="#181818" stroke-width="0.5" stroke-miterlimit="10" fill="#F1F1F1"/><ellipse cx="429.865" cy="816.059" rx="11" ry="11" stroke="#222222" fill="none"/><ellipse cx="429.865" cy="816.059" rx="6" ry="6" stroke="#222222" fill="#222222"/><line x1="429.865" y1="35" x2="429.865" y2="55" stroke="#181818"/><path d="M425.865 45 429.865 55 433.865 45 429.865 49Z" stroke="#181818" stroke-miterlimit="10" fill="#181818"/><line x1="429.865" y1="88.9688" x2="429.865" y2="108.969" stroke="#181818"/><path d="M425.865 98.9688 429.865 108.969 433.865 98.9688 429.865 102.969Z" stroke="#181818" stroke-miterlimit="10" fill="#181818"/><line x1="244.684" y1="230.906" x2="244.684" y2="250.906" stroke="#181818"/><path d="M240.684 240.906 244.684 250.906 248.684 240.906 244.684 244.906Z" stroke="#181818" stroke-miterlimit="10" fill="#181818"/><line x1="244.684" y1="284.875" x2="244.684" y2="304.875" stroke="#181818"/><path d="M240.684 294.875 244.684 304.875 248.684 294.875 244.684 298.875Z" stroke="#181818" stroke-miterlimit="10" fill="#181818"/><line x1="244.684" y1="338.844" x2="244.684" y2="358.844" stroke="#181818"/><path d="M240.684 348.844 244.684 358.844 248.684 348.844 244.684 352.844Z" stroke="#181818" stroke-miterlimit="10" fill="#181818"/><line x1="244.684" y1="436.812" x2="244.684" y2="461.215" stroke="#181818"/><path d="M240.684 451.215 244.684 461.215 248.684 451.215 244.684 455.215Z" stroke="#181818" stroke-miterlimit="10" fill="#181818"/><line x1="328.56" y1="424.812" x2="417.347" y2="424.812" stroke="#181818"/><path d="M413.347 468.199 417.347 478.199 421.347 468.199 417.347 472.199Z" stroke="#181818" stroke-miterlimit="10" fill="#181818"/><line x1="417.347" y1="424.812" x2="417.347" y2="527.184" stroke="#181818"/><line x1="417.347" y1="527.184" x2="256.684" y2="527.184" stroke="#181818"/><path d="M266.684 523.184 256.684 527.184 266.684 531.184 262.684 527.184Z" stroke="#181818" stroke-miterlimit="10" fill="#181818"/><line x1="244.684" y1="495.184" x2="244.684" y2="515.184" stroke="#181818"/><path d="M240.684 505.184 244.684 515.184 248.684 505.184 244.684 509.184Z" stroke="#181818" stroke-miterlimit="10" fill="#181818"/><line x1="244.684" y1="392.812" x2="244.684" y2="412.812" stroke="#181818"/><path d="M240.684 402.812 244.684 412.812 248.684 402.812 244.684 406.812Z" stroke="#181818" stroke-miterlimit="10" fill="#181818"/><line x1="244.684" y1="539.184" x2="244.684" y2="559.184" stroke="#181818"/><path d="M240.684 549.184 244.684 559.184 248.684 549.184 244.684 553.184Z" stroke="#181818" stroke-miterlimit="10" fill="#181818"/><line x1="244.684" y1="593.152" x2="244.684" y2="613.152" stroke="#181818"/><path d="M240.684 603.152 244.684 613.152 248.684 603.152 244.684 607.152Z" stroke="#181818" stroke-miterlimit="10" fill="#181818"/><line x1="244.684" y1="647.121" x2="244.684" y2="667.121" stroke="#181818"/><path d="M240.684 657.121 244.684 667.121 248.684 657.121 244.684 661.121Z" stroke="#181818" stroke-miterlimit="10" fill="#181818"/><line x1="244.684" y1="701.09" x2="244.684" y2="721.09" stroke="#181818"/><path d="M240.684 711.09 244.684 721.09 248.684 711.09 244.684 715.09Z" stroke="#181818" stroke-miterlimit="10" fill="#181818"/><line x1="375.654" y1="174.938" x2="244.684" y2="174.938" stroke="#181818"/><line x1="244.684" y1="174.938" x2="244.684" y2="196.938" stroke="#181818"/><path d="M240.684 186.938 244.684 196.938 248.684 186.938 244.684 190.938Z" stroke="#181818" stroke-miterlimit="10" fill="#181818"/><line x1="484.077" y1="174.938" x2="615.047" y2="174.938" stroke="#181818"/><line x1="615.047" y1="174.938" x2="615.047" y2="196.938" stroke="#181818"/><path d="M611.047 186.938 615.047 196.938 619.047 186.938 615.047 190.938Z" stroke="#181818" stroke-miterlimit="10" fill="#181818"/><line x1="244.684" y1="755.059" x2="244.684" y2="773.059" stroke="#181818"/><line x1="244.684" y1="773.059" x2="417.865" y2="773.059" stroke="#181818"/><path d="M407.865 769.059 417.865 773.059 407.865 777.059 411.865 773.059Z" stroke="#181818" stroke-miterlimit="10" fill="#181818"/><line x1="615.047" y1="230.906" x2="615.047" y2="773.059" stroke="#181818"/><line x1="615.047" y1="773.059" x2="441.865" y2="773.059" stroke="#181818"/><path d="M451.865 769.059 441.865 773.059 451.865 777.059 447.865 773.059Z" stroke="#181818" stroke-miterlimit="10" fill="#181818"/><line x1="429.865" y1="142.938" x2="429.865" y2="162.938" stroke="#181818"/><path d="M425.865 152.938 429.865 162.938 433.865 152.938 429.865 156.938Z" stroke="#181818" stroke-miterlimit="10" fill="#181818"/><line x1="429.865" y1="785.059" x2="429.865" y2="805.059" stroke="#181818"/><path d="M425.865 795.059 429.865 805.059 433.865 795.059 429.865 799.059Z" stroke="#181818" stroke-miterlimit="10" fill="#181818"/></g></svg>