<svg width="843" height="537" viewBox="0 0 843 537" preserveAspectRatio="none" xmlns="http://www.w3.org/2000/svg" xmlns:xlink="http://www.w3.org/1999/xlink" overflow="hidden"><defs></defs><g><g id="ent0001"><path d="M8.5 6 250.405 6C251.604 6.36356 252.542 7.30147 252.905 8.5L259.905 28.2969 684.5 28.2969C685.881 28.2969 687 29.4162 687 30.7969L687 401.68C687 403.061 685.881 404.18 684.5 404.18L8.5 404.18C7.11929 404.18 6 403.061 6 401.68L6 8.5C6 7.11929 7.11929 6 8.5 6" stroke="#000000" stroke-width="1.5" fill="none"/><line x1="6" y1="28.2969" x2="259.905" y2="28.2969" stroke="#000000" stroke-width="1.5"/><text font-family="Arial" font-weight="700" font-size="14" x="10" y="20.9951">Программный слой (Backend)</text></g><g id="ent0003"><path d="M203.5 156.59 322.338 156.59C323.536 156.954 324.474 157.891 324.838 159.09L331.838 178.887 555.5 178.887C556.881 178.887 558 180.006 558 181.387L558 241.39C558 242.771 556.881 243.89 555.5 243.89L203.5 243.89C202.119 243.89 201 242.771 201 241.39L201 159.09C201 157.709 202.119 156.59 203.5 156.59" stroke="#000000" stroke-width="1.5" fill="none"/><line x1="201" y1="178.887" x2="331.838" y2="178.887" stroke="#000000" stroke-width="1.5"/><text font-family="Arial" font-weight="700" font-size="14" x="205" y="171.585">Бизнес-логика</text></g><g id="ent0006"><path d="M32.5 292.89 185.073 292.89C186.272 293.254 187.21 294.191 187.573 295.39L194.573 315.187 194.5 315.187C195.881 315.187 197 316.306 197 317.687L197 377.68C197 379.061 195.881 380.18 194.5 380.18L32.5 380.18C31.1193 380.18 30 379.061 30 377.68L30 295.39C30 294.009 31.1193 292.89 32.5 292.89" stroke="#000000" stroke-width="1.5" fill="none"/><line x1="30" y1="315.187" x2="194.573" y2="315.187" stroke="#000000" stroke-width="1.5"/><text font-family="Arial" font-weight="700" font-size="14" x="34" y="307.885">Quant Math Engine</text></g><g id="ent0008"><path d="M297.5 292.89 442.943 292.89C444.142 293.254 445.08 294.191 445.443 295.39L452.443 315.187 524.5 315.187C525.881 315.187 527 316.306 527 317.687L527 377.68C527 379.061 525.881 380.18 524.5 380.18L297.5 380.18C296.119 380.18 295 379.061 295 377.68L295 295.39C295 294.009 296.119 292.89 297.5 292.89" stroke="#000000" stroke-width="1.5" fill="none"/><line x1="295" y1="315.187" x2="452.443" y2="315.187" stroke="#000000" stroke-width="1.5"/><text font-family="Arial" font-weight="700" font-size="14" x="299" y="307.885">Data Access Layer</text></g><g id="ent0002"><rect x="205.67" y="49.14" rx="2.5" ry="2.5" width="156.664" height="36.2969" stroke="#181818" stroke-width="0.5" fill="#F1F1F1"/><text font-family="Arial" font-size="14" x="215.67" y="72.1351">REST API Endpoints</text></g><g id="ent0010"><rect x="409.95" y="41" rx="2.5" ry="2.5" width="108.108" height="52.5938" stroke="#181818" stroke-width="0.5" fill="#F1F1F1"/><text font-family="Arial" font-size="14" x="419.95" y="63.9951">APScheduler</text><text font-family="Arial" font-size="14" x="419.95" y="80.292">(Cron Jobs)</text></g><g id="ent0004"><rect x="216.86" y="191.59" rx="2.5" ry="2.5" width="134.283" height="36.2969" stroke="#181818" stroke-width="0.5" fill="#F1F1F1"/><text font-family="Arial" font-size="14" x="226.86" y="214.585">Portfolio Service</text></g><g id="ent0005"><rect x="386.04" y="191.59" rx="2.5" ry="2.5" width="155.919" height="36.2969" stroke="#181818" stroke-width="0.5" fill="#F1F1F1"/><text font-family="Arial" font-size="14" x="396.04" y="214.585">MOEX Sync Service</text></g><g id="ent0007"><rect x="46.26" y="327.89" rx="2.5" ry="2.5" width="131.474" height="36.2969" stroke="#181818" stroke-width="0.5" fill="#F1F1F1"/><text font-family="Arial" font-size="14" x="56.26" y="350.885">Bond Calculator</text></g><g id="ent0009"><rect x="311.33" y="327.89" rx="2.5" ry="2.5" width="199.334" height="36.2969" stroke="#181818" stroke-width="0.5" fill="#F1F1F1"/><text font-family="Arial" font-size="14" x="321.33" y="350.885">SQLAlchemy ORM Models</text></g><g id="ent0011"><path d="M360.62 477.18C360.62 467.18 410.996 467.18 410.996 467.18 410.996 467.18 461.373 467.18 461.373 477.18L461.373 502.477C461.373 512.477 410.996 512.477 410.996 512.477 410.996 512.477 360.62 512.477 360.62 502.477L360.62 477.18" stroke="#181818" stroke-width="0.5" fill="#F1F1F1"/><path d="M360.62 477.18C360.62 487.18 410.996 487.18 410.996 487.18 410.996 487.18 461.373 487.18 461.373 477.18" stroke="#181818" stroke-width="0.5" fill="none"/><text font-family="Arial" font-size="14" x="370.62" y="504.175">PostgreSQL</text></g><g id="ent0012"><path d="M711.679 332.302C715.681 326.265 722.311 325.425 726.405 332.197 728.666 326.027 734.466 323.156 739.435 329.34 742.907 323.917 748.468 323.486 752.127 329.126 757.261 322.46 762.157 321.549 766.942 329.479 770.487 322.729 776.389 322.924 780.296 329.105 785.205 324.527 789.108 324.819 792.197 331.099 797.273 325.009 801.802 322.966 807.142 330.817 812.46 325.28 817.378 326.398 820.718 333.025 827.157 336.762 828.167 342.392 821.507 346.876 827.565 351.685 827.472 356.997 821.289 361.625 817.636 369.369 810.65 369.606 806.682 361.924 802.732 369.364 798.659 369.006 793.668 362.926 790.31 369.575 783.29 369.887 778.889 364.172 775.5 369.974 771.202 370.57 766.403 365.842 760.851 370.94 756.244 370.802 752.537 363.739 748.661 369.882 743.574 371.427 738.895 364.583 734.088 371.463 727.924 370.387 724.884 362.864 721.162 368.614 715.555 369.602 712.065 362.63 701.817 360.526 699.938 354.776 704.867 346.075 700.375 338.682 702.966 333.164 711.679 332.302" stroke="#181818" stroke-width="0.5" fill="#F1F1F1"/><text font-family="Arial" font-size="14" x="717.76" y="350.885">MOEX ISS API</text></g><g id="lnk13"><path d="M282.81 85.72C282.13 96.6 281.34 110.9 281 123.59 280.37 146.95 281.347 168.92 282.427 186.14" id="API-to-PortSvc" stroke="#181818" fill="none"/><path d="M282.74 191.13 286.169 181.897 282.427 186.14 278.185 182.398 282.74 191.13Z" stroke="#181818" stroke-miterlimit="10" fill="#181818"/><text font-family="Arial" font-size="13" x="282" y="136.657">HTTP Запросы (DTO)</text></g><g id="lnk14"><path d="M464 94.05C464 122.24 464 161.68 464 186.14" id="Cron-to-SyncSvc" stroke="#181818" fill="none"/><path d="M464 191.14 468 182.14 464 186.14 460 182.14 464 191.14Z" stroke="#181818" stroke-miterlimit="10" fill="#181818"/><text font-family="Arial" font-size="13" x="465" y="136.657">Триггер по времени</text></g><g id="lnk15"><path d="M216.41 217.95C163.46 225.16 96 238.33 79 259.89 63 280.18 77.5863 305.278 92.5963 323.648" id="PortSvc-to-Quant" stroke="#181818" fill="none"/><path d="M95.76 327.52 93.1629 318.02 92.5963 323.648 86.9679 323.082 95.76 327.52Z" stroke="#181818" stroke-miterlimit="10" fill="#181818"/><text font-family="Arial" font-size="13" x="80" y="272.957">Расчеты по облигациям</text></g><g id="lnk16"><path d="M267.22 228.11C255.97 241.94 244.91 261.46 255 276.89 271.18 301.62 293.84 315.687 321.15 325.777" id="PortSvc-to-ORM" stroke="#181818" fill="none"/><path d="M325.84 327.51 318.784 320.639 321.15 325.777 316.012 328.143 325.84 327.51Z" stroke="#181818" stroke-miterlimit="10" fill="#181818"/><text font-family="Arial" font-size="13" x="256" y="272.957">Чтение/Запись портфелей</text></g><g id="lnk17"><path d="M460.68 228.22C457.83 241.76 453.2 260.85 447 276.89 440.05 294.86 432.056 309.865 424.176 323.325" id="SyncSvc-to-ORM" stroke="#181818" fill="none"/><path d="M421.65 327.64 429.649 321.894 424.176 323.325 422.745 317.852 421.65 327.64Z" stroke="#181818" stroke-miterlimit="10" fill="#181818"/><text font-family="Arial" font-size="13" x="454" y="272.957">Обновление справочников</text></g><g id="lnk18"><path d="M542.32 225.42C575.29 233.23 613.46 244.47 646 259.89 680.9 276.42 712.466 300.142 735.476 319.283" id="SyncSvc-to-MOEX" stroke="#181818" fill="none"/><path d="M739.32 322.48 734.959 313.649 735.476 319.283 729.843 319.8 739.32 322.48Z" stroke="#181818" stroke-miterlimit="10" fill="#181818"/><text font-family="Arial" font-size="13" x="676" y="272.957">HTTP GET (JSON)</text></g><g id="lnk19"><path d="M411 364.42C411 390.31 411 433.94 411 462.12" id="ORM-to-DB" stroke="#181818" fill="none"/><path d="M411 467.12 415 458.12 411 462.12 407 458.12 411 467.12Z" stroke="#181818" stroke-miterlimit="10" fill="#181818"/><text font-family="Arial" font-size="13" x="412" y="433.247">SQL (asyncpg)</text></g></g></svg>